<svg xmlns="http://www.w3.org/2000/svg" viewBox="0 0 1024 1024" width="1024" height="1024">
  <title>licenseplate</title>
  <path transform="matrix(0.6495861253448956, 0, 0, 0.6495861253448956, 17.177769018525808, 746.1757981868349)" d="M284.50 52L1239 52C1344 52 1396 0 1396-103L1396-618C1396-721 1344-773 1239-773L284.50-773C180-773 127.50-721.50 127.50-618L127.50-103C127.50 0 180 52 284.50 52ZM285.50-28.50C235.50-28.50 208-55.50 208-107.50L208-614C208-666 235.50-692.50 285.50-692.50L1238-692.50C1287-692.50 1315.50-666 1315.50-614L1315.50-107.50C1315.50-55.50 1287-28.50 1238-28.50ZM898.50-199L1017.50-199C1030.50-199 1042-211 1042-225C1042-239.50 1030.50-250.50 1017.50-250.50L942.50-250.50L990-320.50C1015-355.50 1037.50-393.50 1037.50-435.50C1037.50-490.50 1006.50-529 953.50-529C903-529 870.50-477.50 870.50-441.50C870.50-426.50 880.50-414.50 896.50-414.50C911.50-414.50 920-423 924-440.50C928.50-462 935.50-478 953-478C972.50-478 980.50-459 980.50-434.50C980.50-406 965-376 942-342.50L882.50-254C873-240.50 871-233 871-225.50C871-209 883-199 898.50-199ZM1157-193C1212.50-193 1248.50-235.50 1248.50-290.50C1248.50-325.50 1234-357 1206.50-368C1227-382 1240.50-410.50 1240.50-439.50C1240.50-484.50 1213-528 1155-528C1107-528 1071-491.50 1071-445.50C1071-430.50 1081.50-419.50 1096.50-419.50C1110.50-419.50 1120-426.50 1124.50-441C1130-463.50 1139-477.50 1155-477.50C1173.50-477.50 1184-461 1184-435C1184-411.50 1174-388.50 1148.50-388.50L1139.50-388.50C1125.50-388.50 1115.50-378.50 1115.50-365C1115.50-351 1125.50-340.50 1139.50-340.50L1148.50-340.50C1178.50-340.50 1190-324 1190-292C1190-263.50 1180-244.50 1157-244.50C1139.50-244.50 1127-256 1120.50-281.50C1117-291 1110-302.50 1094-302.50C1075-302.50 1066.50-288 1066.50-275.50C1066.50-244 1093.50-193 1157-193ZM296-194.50C312.50-194.50 323-205.50 325.50-221L337-274.50L404-274.50L415-220.50C418-204 428-194.50 445-194.50C461.50-194.50 473-207 473-223.50C473-228 472.50-235.50 471.50-239.50L412.50-491.50C408-513 393.50-526.50 369-526.50C348-526.50 333.50-514.50 328-491L269.50-240C268.50-235.50 267-228.50 267-223.50C267-207 277-194.50 296-194.50ZM803-195.50C821-195.50 833.50-209 833.50-227L833.50-493.50C833.50-512 819.50-526 800.50-526C787-526 776-520.50 761.50-509L725-477C717-470 711.50-461.50 711.50-453.50C711.50-440 722-430 735-430C740-430 746.50-432.50 750.50-435.50L774-455L774-227C774-209 786-195.50 803-195.50ZM532-194.50C550-194.50 561-205.50 561-224.50L561-304L594.50-304C651-304 685.50-351 685.50-412.50C685.50-467.50 656.50-522 598.50-522L532-522C513-522 503.50-508.50 503.50-492L503.50-224.50C503.50-205.50 514-194.50 532-194.50ZM561-350L561-475.50L583.50-475.50C616-475.50 627-445.50 627-412.50C627-379 615-350 583.50-350ZM343.50-321L370-449L397-321Z" fill="white"/>
</svg>